<?xml version="1.0" standalone="no"?>
<!DOCTYPE svg PUBLIC "-//W3C//DTD SVG 20010904//EN"
 "http://www.w3.org/TR/2001/REC-SVG-20010904/DTD/svg10.dtd">
<svg version="1.0" xmlns="http://www.w3.org/2000/svg"
 width="510.000000pt" height="340.000000pt" viewBox="0 0 510.000000 340.000000"
 preserveAspectRatio="xMidYMid meet">
<metadata>
Created by potrace 1.16, written by Peter Selinger 2001-2019
</metadata>
<g transform="translate(0.000000,340.000000) scale(0.100000,-0.100000)"
fill="#000000" stroke="none">
<path d="M2600 3314 c0 -10 -54 -76 -80 -99 -46 -40 -69 -73 -74 -104 -8 -49
-8 -77 -3 -388 4 -229 8 -275 22 -296 9 -15 16 -46 17 -76 0 -28 3 -49 8 -46
9 6 20 -29 20 -69 0 -28 -1 -28 -14 -11 -12 17 -13 16 -12 -9 1 -15 8 -31 16
-36 11 -7 12 -10 2 -10 -7 0 -10 -4 -7 -10 3 -5 0 -10 -7 -10 -8 0 -9 -3 -3
-8 6 -4 11 -25 12 -47 4 -76 4 -360 0 -387 -5 -33 0 -35 22 -10 21 23 63 52
76 52 5 0 -4 -8 -20 -19 -42 -25 -65 -63 -66 -108 0 -32 -2 -35 -10 -18 -7 16
-8 13 -4 -12 5 -37 -1 -42 -95 -81 -44 -18 -48 -21 -20 -16 19 3 46 7 60 9 13
2 26 9 28 14 10 30 36 2 80 -86 27 -54 68 -128 90 -165 23 -38 38 -68 34 -68
-4 0 0 -6 9 -13 19 -15 44 -61 53 -102 4 -16 19 -46 34 -65 45 -57 66 -94 70
-119 2 -13 16 -49 31 -80 16 -31 40 -94 55 -141 15 -47 36 -107 46 -134 11
-27 17 -53 13 -59 -3 -6 -1 -7 4 -4 13 8 46 -27 36 -37 -5 -4 -3 -6 2 -5 6 2
29 -4 51 -13 39 -16 42 -20 48 -65 3 -26 9 -119 13 -205 l6 -158 40 0 40 0 -7
167 c-4 93 -9 187 -11 210 -3 37 -1 42 24 53 16 6 43 27 61 45 28 29 36 33 49
22 14 -10 14 -10 4 4 -10 12 -9 23 7 55 11 21 22 55 25 74 3 19 17 85 30 145
14 61 24 126 23 146 -1 37 40 169 57 181 6 5 5 8 -2 8 -7 0 -13 8 -13 18 -1
29 -17 -7 -25 -56 -4 -24 -9 -41 -12 -38 -3 3 0 35 7 71 9 47 16 65 26 61 14
-5 37 17 28 27 -4 3 5 55 19 114 14 59 29 128 32 153 4 25 12 51 18 59 23 28
45 268 28 309 -8 21 -19 143 -22 247 0 18 23 110 31 120 4 6 6 24 3 41 -4 29
-7 30 -28 20 -13 -6 -21 -15 -18 -21 3 -5 -4 0 -16 13 -20 21 -29 22 -149 21
-70 -1 -154 -5 -187 -9 -64 -8 -50 -10 80 -13 57 -1 79 -6 78 -14 -3 -12 41
-28 97 -37 14 -2 -34 -4 -106 -4 -73 1 -137 -3 -144 -7 -9 -5 -11 -4 -6 3 7
12 -1 15 -36 15 -10 0 -18 5 -18 11 0 6 -5 4 -10 -4 -8 -13 -10 -13 -10 0 0 7
-12 -5 -27 -28 -33 -51 -58 -52 -88 -5 -11 18 -24 32 -30 31 -5 -1 -17 2 -25
5 -20 8 -104 24 -165 32 -28 4 -53 9 -56 11 -4 2 -37 6 -75 10 -38 4 -71 8
-73 10 -4 4 114 7 199 6 31 -1 32 0 10 7 -39 12 -250 13 -264 2 -16 -13 -33
21 -42 82 l-6 42 19 -35 c14 -28 24 -35 48 -35 22 0 29 4 26 15 -2 8 -9 39
-14 68 -13 67 -3 81 43 57 17 -9 38 -14 46 -11 7 3 18 -3 24 -13 15 -29 88
-36 160 -15 33 9 63 21 66 25 8 13 -9 11 -61 -7 -38 -12 -53 -13 -83 -3 -20 6
-41 16 -47 22 -7 7 -5 7 4 2 11 -6 13 -4 8 8 -3 9 -2 19 3 22 6 4 10 2 10 -3
0 -6 21 -12 48 -15 26 -2 58 -8 71 -12 16 -5 22 -5 18 2 -4 6 -1 11 6 10 41
-1 56 4 51 18 -9 22 9 18 24 -6 9 -14 10 -24 3 -33 -12 -14 -6 -75 8 -89 13
-13 31 55 31 116 0 41 -4 52 -32 77 -17 16 -35 27 -39 24 -4 -2 -14 5 -22 17
-11 15 -16 17 -20 7 -4 -10 -7 -10 -16 1 -7 11 -30 15 -80 16 -38 0 -73 3 -77
8 -4 4 -31 7 -61 7 l-53 0 0 54 c0 49 3 57 34 82 36 32 84 61 131 81 l30 13
-30 -6 c-16 -4 -35 -7 -42 -7 -7 0 -10 -4 -7 -9 3 -4 -14 -8 -38 -9 -34 -1
-38 -2 -18 -8 24 -7 23 -7 -13 -24 -20 -10 -37 -22 -37 -26 0 -5 -8 -12 -17
-15 -14 -6 -12 -2 5 17 12 13 19 27 15 32 -5 4 0 5 10 2 12 -5 16 -3 11 5 -10
16 -33 180 -34 236 0 23 4 42 9 42 9 0 6 134 -4 149 -3 5 0 11 7 13 8 3 8 9 0
24 -6 10 -12 14 -12 8z m242 -1183 c49 -31 128 -46 128 -24 0 20 20 15 20 -4
1 -16 2 -16 16 2 9 12 18 16 22 10 4 -6 35 -10 69 -10 49 0 63 -3 64 -15 0
-10 2 -11 6 -2 7 18 21 15 28 -8 4 -13 -1 -27 -14 -42 -26 -27 -27 -50 -2 -72
21 -19 18 -46 -5 -46 -9 0 -14 -11 -14 -29 0 -17 -5 -33 -10 -36 -23 -14 4
-23 65 -20 57 2 65 1 65 -15 0 -10 -8 -20 -17 -24 -10 -3 -34 -17 -53 -31 -19
-14 -43 -31 -52 -37 -9 -6 -15 -15 -12 -20 6 -10 7 -10 -85 -11 -49 -1 -75 2
-78 10 -3 6 -18 15 -35 18 -29 7 -52 40 -40 59 3 5 0 6 -7 2 -6 -4 -14 0 -17
8 -3 9 -15 16 -25 16 -10 0 -19 7 -19 15 0 8 -10 20 -22 26 -49 26 -168 121
-201 160 -35 40 -39 59 -15 59 6 0 9 -3 6 -6 -4 -3 1 -13 10 -22 10 -10 26
-28 37 -42 21 -27 125 -93 163 -105 25 -7 62 17 62 42 0 19 38 16 44 -4 3 -10
4 -6 2 10 -3 25 -1 27 35 27 22 0 39 5 39 10 0 6 -9 10 -20 10 -15 0 -20 7
-20 25 0 26 -15 34 -23 13 -4 -9 -8 -10 -14 -2 -4 5 -26 19 -48 29 -35 17 -37
20 -17 23 34 5 16 22 -25 22 -27 0 -33 3 -25 13 7 8 6 16 -3 24 -10 10 -16 9
-25 -2 -17 -21 -30 -19 -30 5 0 29 37 26 92 -9z m-92 -420 c0 -4 19 -21 42
-37 41 -29 67 -73 73 -126 2 -15 9 -36 14 -47 6 -11 11 -28 11 -39 0 -25 26
-48 33 -30 3 7 6 4 6 -7 1 -20 10 -27 79 -60 34 -16 41 -32 17 -41 -8 -4 -15
-10 -15 -15 0 -14 30 -11 31 4 0 6 5 1 10 -12 8 -19 12 -21 24 -11 13 11 19 8
38 -14 22 -25 25 -26 51 -12 18 9 23 16 14 19 -9 4 -7 6 5 6 9 1 17 9 17 19 0
14 2 15 10 2 5 -8 10 -12 11 -7 1 4 3 12 4 17 1 6 3 17 4 25 2 23 21 18 21 -6
0 -11 5 -29 10 -40 8 -13 7 -19 0 -19 -6 0 -8 -5 -5 -10 4 -6 1 -18 -7 -27 -8
-10 -8 -14 -1 -10 6 4 14 3 18 -3 3 -5 2 -10 -3 -10 -5 0 -9 -7 -9 -15 0 -8 9
-15 19 -15 10 0 18 7 18 15 0 9 7 18 15 21 8 4 15 15 15 26 0 23 37 62 67 70
16 4 19 2 16 -13 -4 -14 -1 -16 17 -12 19 5 20 3 14 -22 -5 -21 -4 -26 6 -20
8 5 11 2 7 -11 -3 -11 -11 -44 -17 -74 -7 -30 -16 -66 -21 -80 -5 -14 -11 -38
-13 -53 -3 -16 -10 -35 -16 -42 -6 -7 -10 -19 -9 -27 4 -22 -27 -81 -57 -110
-122 -112 -369 -47 -418 110 -4 12 -11 22 -16 22 -14 0 -60 46 -60 60 0 7 -13
29 -29 49 -24 31 -121 211 -121 225 0 3 7 3 15 0 17 -7 45 12 45 29 0 6 -6 3
-13 -8 -8 -10 -19 -15 -25 -11 -11 7 -1 23 41 68 16 17 16 18 -1 18 -24 0 -42
19 -41 45 0 18 1 17 10 -5 8 -20 12 -22 19 -10 5 9 5 19 -1 26 -7 8 -6 14 1
19 6 3 8 10 5 15 -6 9 19 20 43 19 11 -1 9 -3 -6 -7 -22 -7 -22 -7 -2 -20 17
-10 20 -10 20 3 0 8 6 15 13 15 6 1 3 6 -8 13 -11 7 -22 23 -23 37 -2 14 -8
32 -13 40 -7 12 -8 12 -9 -4 0 -11 -3 -17 -6 -13 -8 8 5 47 16 47 5 0 11 -8
14 -17 3 -10 3 -1 1 21 -2 21 -12 47 -21 57 -10 11 -12 19 -6 19 7 0 12 -4 12
-9z m580 -938 c-31 -143 -41 -167 -85 -209 -32 -31 -53 -42 -85 -47 -86 -11
-118 27 -163 191 -22 82 -23 93 -9 86 116 -50 193 -54 271 -14 23 11 47 18 53
14 7 -4 8 -3 4 4 -7 11 15 44 23 36 2 -2 -2 -30 -9 -61z"/>
<path d="M3516 3272 c52 -34 38 -242 -16 -242 -15 0 -20 -11 -26 -56 -4 -34
-2 -65 4 -79 8 -18 8 -25 -1 -29 -9 -3 -8 -7 3 -15 13 -9 12 -11 -5 -11 -16 0
-17 -2 -5 -10 8 -5 12 -12 9 -15 -4 -3 -30 6 -60 20 -30 14 -61 24 -69 24 -8
0 10 -12 40 -26 61 -27 96 -56 114 -93 14 -29 10 -64 -7 -57 -7 2 -37 0 -67
-4 -30 -5 -77 -12 -104 -15 -27 -2 -66 -14 -88 -25 -21 -11 -43 -17 -49 -14
-14 9 -66 -51 -74 -85 -8 -36 3 -93 16 -85 5 4 6 -1 3 -9 -3 -8 -1 -23 5 -33
10 -17 10 -17 11 0 0 9 4 17 9 17 11 0 9 18 -7 47 -15 28 -2 36 35 22 16 -6
55 -8 93 -4 60 5 105 -5 83 -18 -15 -9 -84 -10 -123 -2 -19 5 -32 4 -27 0 15
-17 83 -35 129 -35 39 0 54 6 82 31 20 17 41 29 48 26 7 -2 23 4 34 15 19 17
25 18 43 6 30 -19 28 -50 -12 -135 -6 -13 -7 -26 -4 -29 4 -4 -3 -15 -15 -25
l-21 -19 35 0 c32 0 36 3 43 33 7 28 9 29 12 9 6 -30 28 -23 29 9 2 43 4 48
18 43 18 -7 39 48 33 88 -2 18 0 41 5 51 7 13 5 45 -6 100 -9 45 -20 156 -26
247 -13 216 -31 296 -77 349 -19 23 -40 41 -46 41 -9 0 -9 -2 -1 -8z"/>
<path d="M1195 1292 c-27 -21 -59 -56 -71 -77 -11 -22 -31 -45 -44 -52 -13 -6
-39 -29 -58 -49 -30 -33 -36 -48 -43 -109 -16 -136 -11 -306 11 -369 11 -32
22 -81 26 -109 17 -135 67 -299 135 -442 18 -38 33 -73 32 -76 -1 -4 43 -7 98
-8 80 -2 99 1 93 11 -5 10 -4 11 7 0 9 -8 58 -12 169 -12 l156 0 -7 58 c-4 31
-10 71 -14 87 -6 29 -5 29 10 -5 9 -19 19 -59 22 -87 l6 -53 138 0 c100 0 139
3 142 13 4 9 6 9 6 0 1 -7 14 -13 30 -13 26 0 29 4 36 43 9 54 9 51 1 251 -4
94 -11 177 -16 186 -5 9 -5 22 1 31 8 12 10 12 18 -1 13 -19 15 -15 29 57 12
60 12 62 -13 87 -14 14 -32 26 -40 26 -8 0 -15 6 -15 13 0 22 -29 75 -45 81
-8 3 -24 26 -36 51 -26 55 -44 59 -35 8 4 -22 3 -33 -2 -25 -7 10 -14 9 -38
-2 -37 -18 -71 -23 -219 -32 -111 -6 -124 -5 -175 16 -30 13 -76 37 -102 54
-40 27 -47 37 -53 73 -4 31 -2 49 9 65 22 32 20 64 -8 101 -18 25 -25 51 -30
111 -7 77 -29 136 -51 136 -5 0 -32 -17 -60 -38z"/>
<path d="M4466 1139 c10 -19 19 -43 21 -54 7 -36 24 -378 23 -452 -1 -50 2
-73 10 -73 8 0 10 -10 7 -27 -5 -27 10 -83 22 -83 4 0 6 124 5 275 -2 263 -3
277 -25 322 -12 25 -22 52 -22 60 0 7 -4 13 -9 13 -5 0 -7 3 -5 8 3 4 -6 15
-20 26 l-25 18 18 -33z"/>
<path d="M4620 957 c0 -2 6 -17 14 -33 29 -61 44 -101 56 -154 7 -30 19 -64
26 -75 8 -11 14 -29 13 -40 -1 -17 -2 -16 -9 5 -5 15 -8 18 -9 8 -2 -26 10
-48 25 -48 25 0 15 -45 -16 -75 l-30 -29 0 48 c0 29 -4 45 -10 41 -5 -3 -10
-27 -10 -52 0 -48 5 -41 -116 -176 -19 -21 -34 -43 -34 -48 0 -12 9 -3 75 75
58 69 170 159 162 130 -9 -27 -26 -107 -27 -118 0 -6 7 -1 16 10 14 17 15 17
10 1 -3 -10 -6 -28 -6 -39 0 -17 -3 -18 -15 -8 -13 11 -15 5 -15 -44 0 -31 -4
-56 -10 -56 -5 0 -10 -9 -10 -20 0 -11 -6 -20 -14 -20 -10 0 -12 -11 -9 -43 5
-39 2 -45 -36 -82 -23 -22 -41 -47 -41 -55 0 -8 -5 -22 -10 -30 -8 -13 -11
-13 -19 -1 -5 8 -19 12 -34 9 -24 -5 -25 -3 -15 21 5 14 15 33 22 41 15 18 48
123 50 163 1 16 8 32 15 36 6 4 11 12 10 17 -5 29 2 55 14 48 6 -4 9 -4 5 0
-3 4 -2 21 2 37 12 42 -2 36 -43 -18 -20 -27 -43 -55 -51 -63 -24 -25 -62
-131 -76 -210 -7 -41 -17 -79 -22 -85 -19 -21 -2 -25 117 -25 104 0 125 2 125
15 0 8 5 15 10 15 6 0 10 -7 10 -15 0 -11 12 -15 49 -15 l49 0 -5 87 c-6 109
-7 113 -35 113 -23 0 -23 0 2 13 20 10 24 19 22 46 l-4 33 47 -26 c55 -31 64
-32 40 -6 -10 11 -23 20 -29 20 -6 0 -17 9 -24 20 -7 11 -19 20 -28 20 -13 0
-15 16 -14 108 1 59 -2 117 -5 130 -9 27 10 30 37 5 10 -9 21 -14 24 -11 5 6
-53 153 -94 233 -34 69 -122 192 -122 172z"/>
<path d="M4449 915 c-3 -5 -7 -57 -8 -115 -1 -67 -10 -135 -23 -188 l-21 -83
-18 42 c-11 22 -20 53 -20 68 -1 15 -3 19 -6 9 -4 -15 1 -46 26 -170 7 -33 6
-35 -10 -25 -13 8 -24 8 -43 -1 l-26 -12 -1 88 c-1 129 -17 150 -20 27 -2 -55
-2 -119 0 -142 1 -24 -2 -51 -8 -60 -8 -15 -9 -14 -10 7 0 14 -2 39 -5 55 -21
132 -28 166 -40 206 -16 53 -45 113 -52 107 -2 -2 5 -28 16 -56 20 -52 43
-253 38 -326 -2 -37 -17 -50 -19 -18 -1 9 -5 -1 -8 -23 l-6 -39 -32 34 c-18
19 -33 41 -33 48 0 6 -5 12 -11 12 -7 0 -8 -7 -4 -17 15 -39 33 -100 39 -131
3 -19 12 -48 20 -65 22 -51 26 -67 16 -67 -5 0 -16 13 -25 30 -15 30 -42 43
-32 16 4 -10 1 -13 -9 -9 -11 4 -14 -7 -14 -56 l0 -60 135 0 134 1 12 37 c16
50 108 239 120 246 5 4 9 14 9 23 0 11 -6 7 -18 -13 -30 -49 -44 -57 -81 -44
-26 9 -31 16 -31 42 1 18 7 46 14 62 l12 30 7 -34 c13 -61 18 -25 7 43 -7 43
-7 80 -1 104 27 108 52 453 30 417z"/>
<path d="M2294 719 c3 -58 9 -116 15 -130 12 -26 77 -384 90 -489 9 -77 18
-100 38 -100 16 0 15 16 -10 120 -9 36 -21 103 -28 150 -6 47 -15 90 -19 95
-4 6 -10 30 -13 55 -4 25 -11 68 -17 95 -5 28 -21 109 -35 180 l-25 130 4
-106z"/>
<path d="M2176 560 c9 -201 14 -358 15 -462 l1 -98 40 0 40 0 -6 43 c-4 23
-11 78 -16 122 -9 76 -33 260 -44 335 -3 19 -12 69 -21 110 l-15 75 6 -125z"/>
</g>
</svg>
