<?xml version="1.0" standalone="no"?>
<!DOCTYPE svg PUBLIC "-//W3C//DTD SVG 20010904//EN"
 "http://www.w3.org/TR/2001/REC-SVG-20010904/DTD/svg10.dtd">
<svg version="1.0" xmlns="http://www.w3.org/2000/svg"
 width="509.000000pt" height="340.000000pt" viewBox="0 0 509.000000 340.000000"
 preserveAspectRatio="xMidYMid meet">
<metadata>
Created by potrace 1.16, written by Peter Selinger 2001-2019
</metadata>
<g transform="translate(0.000000,340.000000) scale(0.100000,-0.100000)"
fill="#000000" stroke="none">
<path d="M0 1700 l0 -1700 863 0 863 0 -4 40 c-2 22 -8 43 -14 46 -6 4 -7 -8
-2 -31 5 -27 4 -36 -5 -31 -7 5 -11 49 -11 130 l0 123 40 72 c21 40 56 95 77
123 28 39 46 80 69 162 30 106 33 112 67 128 20 10 44 29 53 43 9 14 23 25 30
25 8 0 14 9 14 20 0 18 17 95 61 275 11 44 21 104 22 132 2 29 7 56 11 60 4 4
4 -1 1 -12 -5 -15 -4 -17 3 -6 6 8 8 20 5 28 -3 7 0 13 5 13 15 0 36 71 34
114 -1 10 2 16 5 13 9 -10 54 63 47 75 -4 6 -2 8 3 5 12 -7 58 62 48 71 -3 3
-5 0 -5 -6 0 -7 -4 -12 -10 -12 -5 0 -7 8 -4 18 5 13 4 14 -4 3 -6 -8 -8 -21
-5 -28 4 -9 -9 -27 -31 -45 -26 -21 -36 -37 -33 -49 3 -11 1 -17 -4 -13 -5 3
-9 12 -9 20 0 8 -6 13 -12 12 -23 -5 -14 37 9 47 31 13 34 70 3 62 -11 -3 -20
-1 -20 4 0 5 9 9 20 9 19 0 20 7 20 120 0 113 1 120 20 120 19 0 20 7 20 120
0 113 1 120 20 120 17 0 20 7 20 40 l0 40 40 0 40 0 0 40 c0 33 -3 40 -20 40
-21 0 -24 10 -14 48 5 16 14 22 35 22 36 0 43 13 43 78 l-1 52 38 0 c35 0 39
3 39 24 0 30 9 56 20 56 5 0 6 -10 4 -22 -4 -21 -4 -22 5 -3 5 11 10 34 10 52
1 17 6 35 13 39 7 5 9 0 6 -14 -3 -12 0 -38 8 -59 l14 -38 -6 47 c-3 26 -1 76
4 110 26 149 28 178 18 189 -8 9 -8 10 1 5 7 -3 14 2 18 14 3 11 11 20 16 20
5 0 9 8 9 18 0 9 12 35 25 57 28 44 31 60 13 49 -8 -4 -10 -3 -5 2 5 5 13 9
19 9 12 0 58 79 58 100 0 7 17 29 37 49 54 51 130 67 340 74 l173 5 38 -27
c21 -14 49 -26 63 -26 14 0 41 -8 62 -19 20 -10 52 -22 71 -25 31 -6 61 -29
163 -123 25 -24 39 -30 28 -13 -3 6 -1 10 4 10 13 0 14 -17 2 -24 -11 -7 -3
-44 11 -52 5 -3 8 5 7 18 -1 12 -1 32 0 43 3 17 4 17 11 -5 7 -23 8 -22 10 10
1 19 4 29 7 23 3 -10 38 -13 124 -13 109 0 119 -2 119 -19 0 -15 11 -19 61
-25 34 -3 79 -6 100 -6 28 0 39 -4 39 -15 0 -8 7 -15 15 -15 8 0 15 -9 15 -20
0 -15 7 -20 25 -20 18 0 25 -5 25 -20 0 -17 7 -20 40 -20 l40 0 0 -40 0 -40
40 0 c33 0 40 -3 40 -20 0 -13 7 -20 20 -20 13 0 20 7 20 20 0 13 7 20 20 20
25 0 27 -37 3 -43 -10 -3 -4 -5 13 -6 34 -1 44 -18 44 -78 0 -32 2 -33 40 -33
l40 0 0 -40 c0 -33 -3 -40 -20 -40 -13 0 -20 -7 -20 -20 0 -13 7 -20 20 -20
13 0 20 7 20 20 0 13 7 20 20 20 17 0 20 -7 20 -40 l0 -40 40 0 c33 0 40 -3
40 -20 0 -13 7 -20 20 -20 18 0 20 -7 20 -80 l0 -80 40 0 40 0 0 -80 c0 -73 2
-80 20 -80 18 0 20 -7 20 -80 0 -73 2 -80 20 -80 19 0 20 -7 20 -160 0 -153 1
-160 20 -160 17 0 20 -7 20 -40 0 -33 -3 -40 -20 -40 -19 0 -20 -7 -20 -120 0
-113 -1 -120 -20 -120 -17 0 -20 -7 -20 -40 0 -33 -3 -40 -20 -40 -19 0 -20
-7 -20 -120 l0 -120 -40 0 -40 0 0 -40 c0 -33 -3 -40 -20 -40 -13 0 -20 -7
-20 -20 0 -15 -7 -20 -26 -20 -25 0 -25 -2 -19 -40 6 -36 5 -40 -14 -40 -18 0
-21 -6 -21 -40 l0 -40 -55 0 -55 0 0 -60 0 -60 -65 0 c-58 0 -65 -2 -65 -20 0
-15 -7 -20 -25 -20 -16 0 -25 -6 -25 -15 0 -8 -7 -15 -15 -15 -9 0 -15 -9 -15
-25 0 -18 -5 -25 -20 -25 -11 0 -20 -6 -20 -14 0 -8 -11 -17 -25 -20 -23 -6
-36 -26 -17 -26 4 0 6 -18 4 -40 -3 -33 -1 -39 11 -34 8 3 17 1 21 -4 3 -5 -5
-8 -17 -7 -12 1 -24 9 -25 19 -3 13 -7 15 -18 5 -8 -6 -15 -8 -15 -3 -1 8 -3
26 -9 99 l-2 30 -8 -35 c-5 -19 -4 -42 1 -51 5 -10 6 -25 3 -33 -3 -9 -2 -16
2 -16 5 -1 26 -15 46 -33 35 -30 38 -37 44 -100 l6 -69 -33 18 c-19 10 -37 17
-41 16 -5 -1 -8 4 -8 11 0 9 -11 12 -37 9 l-38 -5 20 23 20 23 -21 -11 c-11
-6 -26 -7 -34 -2 -18 11 -43 1 -32 -14 13 -17 53 -134 51 -148 -1 -7 1 -21 6
-31 17 -40 -4 -24 -40 30 -46 72 -129 149 -169 157 -16 3 -31 4 -33 2 -2 -2 7
-20 21 -40 13 -20 26 -40 28 -44 2 -4 37 -37 79 -74 l76 -67 477 -1 476 0 0
1700 0 1700 -2545 0 -2545 0 0 -1700z"/>
<path d="M2675 2994 c-8 -20 -13 -45 -10 -56 4 -10 3 -23 -1 -30 -6 -9 -10 -5
-15 12 -7 24 -7 24 -8 -5 -1 -17 5 -37 12 -45 6 -8 2 -6 -10 3 -20 18 -21 18
-27 -1 -4 -10 -4 -28 0 -38 5 -16 4 -16 -5 -4 -9 12 -11 9 -11 -15 -1 -16 -3
-45 -5 -63 -2 -29 -1 -32 19 -26 11 4 21 7 22 8 12 18 53 159 49 167 -4 5 -1
8 7 7 7 -2 12 4 10 12 -2 8 0 12 4 8 4 -4 13 0 20 10 16 20 18 36 4 27 -5 -3
-10 2 -10 12 0 10 -7 26 -15 37 -13 17 -15 16 -30 -20z"/>
<path d="M3330 2836 c0 -5 11 -17 25 -28 14 -11 30 -28 35 -39 9 -15 8 -18 -7
-12 -13 4 -10 -3 10 -24 34 -37 34 -47 0 -38 l-28 7 28 -26 c15 -14 30 -39 33
-56 4 -16 10 -30 14 -30 4 0 12 -11 18 -25 7 -16 17 -23 27 -19 8 3 23 3 33
-1 16 -6 16 -7 -1 -17 -17 -9 -16 -12 12 -29 17 -10 37 -18 44 -16 8 1 11 -12
9 -45 -2 -27 0 -48 5 -48 19 1 35 19 30 34 -3 8 1 22 9 30 13 14 12 16 -11 22
-31 8 -31 11 -2 36 12 11 17 17 11 14 -7 -4 -11 13 -11 49 0 30 -3 58 -8 62
-4 5 -5 2 0 -6 6 -11 3 -13 -16 -8 -13 4 -28 7 -32 7 -5 0 -6 4 -3 8 7 12 -33
54 -43 47 -5 -2 -14 2 -21 10 -7 8 -21 15 -30 15 -10 0 -27 15 -39 33 -21 35
-91 106 -91 93z"/>
<path d="M3033 2688 c-12 -21 -14 -48 -2 -48 5 0 7 -4 4 -10 -3 -5 -1 -10 5
-10 6 0 9 -4 6 -9 -8 -12 20 -22 41 -14 12 5 14 3 8 -8 -7 -12 -6 -12 8 -1 9
8 46 24 83 37 l67 23 -34 22 c-25 15 -47 20 -81 18 -25 -2 -44 0 -41 5 2 4 -9
7 -26 7 -16 0 -33 -6 -38 -12z"/>
<path d="M3540 1921 c-32 -51 -60 -80 -60 -64 0 5 5 14 12 21 7 7 9 12 6 12
-3 0 -18 -17 -34 -37 -21 -29 -22 -33 -6 -19 12 11 22 15 22 11 0 -13 -72 -97
-78 -91 -3 4 3 16 14 29 10 13 0 4 -22 -21 -43 -45 -70 -56 -172 -68 -35 -4
-57 -2 -67 6 -9 7 -49 15 -89 18 -68 4 -75 7 -87 31 l-13 26 -4 -27 c-4 -30
-23 -41 -55 -30 -25 9 -34 9 -59 -2 -10 -4 -23 -6 -30 -3 -7 3 -4 6 8 6 11 1
29 10 39 21 19 21 7 28 -13 8 -6 -6 -22 -13 -34 -15 -36 -5 -50 -12 -43 -23 7
-11 -29 -50 -47 -51 -7 0 -4 -4 8 -9 12 -4 35 -32 51 -62 35 -62 129 -154 166
-163 24 -7 26 -11 26 -68 -1 -97 -55 -200 -109 -204 -14 -1 -18 0 -7 3 9 3 17
13 17 22 0 13 2 14 9 4 6 -11 10 -8 14 10 3 12 5 26 4 29 -1 4 7 16 17 28 11
12 15 21 10 21 -5 1 0 8 11 18 26 22 27 65 1 70 -21 4 -136 -19 -136 -28 0 -3
9 -20 20 -37 11 -18 17 -39 14 -48 -4 -8 1 -17 10 -21 20 -8 21 -38 2 -54 -8
-6 -12 -19 -9 -27 4 -11 2 -14 -5 -9 -7 4 -12 1 -12 -9 0 -9 -4 -13 -10 -10
-5 3 -7 0 -4 -8 3 -8 0 -18 -5 -22 -6 -3 -9 -11 -5 -16 8 -13 -87 -110 -99
-102 -6 3 -7 1 -3 -5 8 -14 -43 -94 -55 -86 -5 3 -9 -2 -9 -11 0 -8 -14 -44
-32 -78 -17 -34 -41 -93 -54 -132 -12 -38 -23 -64 -23 -57 -1 7 -6 10 -11 7
-7 -4 -7 -12 0 -25 12 -22 0 -33 -24 -24 -9 3 -16 1 -16 -5 0 -6 -7 -11 -15
-11 -8 0 -15 -6 -15 -14 0 -8 -8 -17 -17 -19 -11 -3 -6 -6 12 -7 l30 -2 -30
-7 c-23 -5 -31 -13 -36 -37 -8 -41 -35 -79 -44 -64 -4 7 -15 1 -29 -17 -12
-15 -41 -48 -64 -72 -42 -44 -47 -59 -17 -48 18 8 31 5 27 -5 -1 -5 9 -8 22
-8 14 0 28 -5 32 -12 4 -6 3 -9 -2 -6 -5 2 -19 -6 -31 -19 -17 -18 -19 -23 -7
-23 8 0 13 -4 9 -9 -4 -8 -40 -9 -64 -2 -2 0 6 10 19 21 25 22 20 26 -12 9
-13 -7 -18 -7 -14 -1 3 6 2 13 -3 16 -5 3 -11 0 -14 -7 -3 -9 -16 -12 -36 -9
-19 2 -31 0 -31 -7 0 -6 -5 -11 -11 -11 -6 0 -9 7 -6 15 4 8 2 17 -3 20 -10 6
-14 -7 -11 -32 1 -7 -4 -10 -12 -8 -13 6 -37 -14 -60 -48 -11 -16 -12 -12 -9
25 2 32 1 39 -7 28 -10 -13 -12 -13 -20 0 -5 8 -7 19 -4 25 4 7 2 7 -5 0 -6
-6 -13 -36 -14 -67 -1 -32 -5 -52 -9 -46 -10 15 -46 20 -54 8 -3 -6 -12 -10
-20 -10 -20 0 -76 60 -69 72 4 7 2 8 -4 4 -7 -4 -12 -2 -12 3 0 6 -6 11 -14
11 -9 0 -12 -7 -9 -20 7 -26 -14 -26 -22 -1 -6 20 -6 20 -26 0 -19 -19 -20
-28 -14 -90 l7 -69 1147 0 c655 0 1140 4 1132 9 -7 5 -14 22 -14 37 0 16 -2
23 -4 17 -6 -17 -23 -17 -23 0 0 9 -10 12 -31 9 -20 -3 -35 1 -41 9 -7 11 -11
11 -15 2 -6 -17 -28 -16 -45 0 -7 8 -23 19 -36 26 -20 10 -22 9 -23 -11 0 -23
0 -23 -9 -2 -14 34 -34 42 -28 11 3 -17 0 -28 -9 -31 -22 -9 -30 -7 -14 3 21
14 5 29 -26 24 -23 -4 -25 -2 -13 7 13 10 12 11 -3 6 -19 -6 -45 4 -69 27 -7
7 -32 27 -55 45 -40 31 -42 32 -52 13 -9 -16 -6 -23 15 -40 15 -12 29 -21 33
-21 3 0 23 -16 45 -35 21 -19 42 -35 47 -35 5 0 9 -5 9 -10 0 -7 -6 -7 -20 0
-15 8 -20 8 -20 -1 0 -6 -6 -9 -14 -6 -8 3 -17 1 -19 -6 -3 -7 -15 0 -32 18
-15 17 -24 23 -20 15 4 -8 -6 -1 -23 15 -16 17 -27 35 -24 40 3 6 -12 -5 -33
-24 l-39 -33 -27 33 c-16 19 -29 37 -29 40 0 3 -20 4 -44 3 -35 -2 -44 1 -39
12 6 17 25 18 40 3 8 -8 13 -7 18 2 5 7 4 10 -1 6 -6 -3 -16 3 -23 15 -7 11
-8 17 -2 13 20 -12 11 11 -21 59 -18 26 -43 64 -55 84 -22 36 -33 38 -14 3 6
-10 6 -23 0 -32 -7 -11 -9 -10 -9 6 0 16 -2 17 -9 6 -8 -12 -11 -9 -16 11 -7
28 7 63 37 89 10 9 18 23 18 30 0 14 21 55 93 185 20 38 37 82 37 99 l-1 30
-20 -25 c-19 -22 -22 -23 -33 -9 -10 15 -17 12 -66 -20 -49 -32 -100 -44 -100
-22 0 4 10 12 23 17 12 6 17 9 11 8 -7 -1 -12 7 -12 19 0 12 -3 38 -7 57 -5
27 0 52 23 110 17 41 35 74 41 72 16 -3 2 47 -22 80 -17 23 -22 25 -46 15 -14
-6 -27 -12 -29 -13 -2 -1 4 -17 13 -34 17 -32 16 -34 -24 -120 -23 -49 -41
-93 -41 -99 0 -14 -51 -66 -78 -81 -13 -6 -21 -14 -18 -17 3 -3 13 0 22 8 16
13 16 12 3 -8 -8 -13 -18 -23 -23 -23 -5 0 -6 -20 -4 -45 3 -25 2 -46 -3 -46
-20 -3 -24 -5 -36 -12 -6 -4 -14 -1 -16 5 -4 9 -6 8 -6 -2 -1 -9 -9 -16 -18
-17 -10 -1 -35 -4 -55 -7 -21 -2 -40 0 -44 5 -3 5 -14 9 -24 9 -10 0 -20 6
-23 13 -4 9 -7 9 -18 0 -7 -7 -24 -13 -37 -13 -24 0 -25 1 -19 61 5 57 4 60
-9 34 -8 -15 -14 -35 -14 -44 0 -9 -8 -25 -16 -36 -15 -19 -16 -17 -11 25 3
24 10 46 16 48 5 2 7 10 4 19 -4 11 -2 14 5 9 8 -5 12 3 12 27 0 34 20 64 34
50 4 -4 4 0 1 10 -8 19 58 131 69 119 4 -4 7 -2 6 3 -5 24 1 37 15 32 8 -4 17
-1 21 5 4 7 3 8 -4 4 -7 -4 -12 -3 -12 2 0 13 35 43 43 37 4 -3 5 -2 3 1 -3 3
27 45 66 92 70 85 105 149 150 270 17 47 30 68 52 79 15 8 25 10 22 4 -14 -22
5 -10 45 29 23 22 45 37 50 34 5 -3 7 -9 4 -14 -3 -5 21 -11 52 -15 32 -3 75
-10 95 -14 22 -5 36 -5 32 0 -3 5 -13 9 -21 9 -13 0 -11 6 9 28 49 52 59 94
36 149 -6 15 -11 31 -10 36 1 4 -3 7 -8 7 -5 0 -10 8 -11 18 0 14 -2 14 -9 -3
-8 -18 -9 -18 -9 -2 -1 10 34 63 77 117 73 94 118 160 109 160 -3 0 -19 -22
-37 -49z m-478 -247 l167 -6 -17 -27 c-28 -42 -83 -92 -95 -84 -7 3 -9 3 -5
-1 4 -5 1 -14 -5 -21 -10 -10 -14 -9 -24 9 -8 14 -12 16 -12 6 -1 -8 3 -22 9
-30 15 -24 -9 -40 -62 -40 -27 0 -62 7 -77 15 -31 15 -86 87 -121 155 l-21 41
48 -5 c26 -3 123 -8 215 -12z m-369 -1191 c-18 -2 -33 -8 -33 -12 0 -13 143
-41 248 -47 86 -6 105 -10 113 -26 21 -40 -30 -83 -82 -68 -18 5 -37 3 -55 -6
-29 -16 -104 -16 -104 -1 0 5 -16 6 -36 2 -24 -4 -34 -3 -29 4 7 13 -14 14
-33 2 -10 -6 -7 -10 13 -15 15 -4 45 -26 67 -49 l41 -41 -38 -17 c-24 -11 -47
-14 -64 -10 -36 10 -136 14 -161 6 -20 -6 -29 -48 -12 -58 4 -2 0 -2 -8 1 -8
3 -26 6 -39 7 -20 1 -28 11 -40 48 -9 25 -19 49 -23 53 -15 14 -8 59 15 98 17
31 40 50 102 83 81 42 105 50 160 50 29 0 29 0 -2 -4z"/>
<path d="M2269 1544 c-11 -26 -25 -81 -31 -123 -13 -95 -27 -123 -29 -61 l-1
45 -9 -40 c-4 -22 -9 -67 -10 -100 -2 -46 -3 -50 -6 -20 -2 22 -6 51 -9 65 -6
23 -8 21 -20 -20 -16 -52 -20 -124 -10 -160 6 -19 5 -21 -3 -10 -8 11 -11 -3
-11 -57 0 -39 -4 -75 -10 -78 -5 -3 -10 2 -10 11 0 27 -10 10 -15 -24 -2 -17
-6 -41 -10 -52 -5 -16 -2 -23 14 -27 12 -3 21 -9 21 -14 0 -5 -6 -6 -14 -3 -9
3 -17 -3 -21 -15 -3 -12 -11 -21 -17 -21 -5 0 -8 -7 -4 -15 3 -10 -1 -15 -13
-15 -21 0 -36 -40 -20 -51 14 -8 -20 -23 -45 -20 -12 2 -16 -1 -11 -9 5 -9 1
-10 -16 -5 -23 7 -23 6 -5 -8 11 -8 27 -12 37 -10 10 3 26 0 36 -7 16 -10 15
-11 -9 -7 -15 2 -25 0 -22 -4 3 -5 18 -9 34 -9 l29 0 -21 -37 c-12 -21 -26
-41 -30 -44 -4 -3 -7 -21 -5 -40 2 -30 5 -34 29 -31 22 3 27 -2 33 -26 10 -47
42 -58 101 -34 52 21 84 25 84 9 0 -5 -7 -6 -15 -3 -9 3 -32 -3 -53 -14 -31
-17 -35 -25 -11 -22 4 1 21 -3 39 -8 27 -8 45 -3 116 28 46 20 84 43 84 50 0
7 -4 11 -9 8 -5 -3 -12 1 -15 10 -5 13 -9 14 -20 4 -8 -6 -32 -10 -53 -8 -35
3 -40 7 -61 51 -15 32 -28 47 -37 43 -7 -2 -19 2 -25 10 -9 10 -9 14 -1 14 13
0 14 49 1 70 -8 12 -10 10 -11 -10 0 -14 -3 -19 -6 -12 -3 7 1 27 8 44 7 17
12 48 10 69 -1 21 7 60 18 86 11 27 22 68 25 93 3 25 14 63 24 85 23 46 30 85
37 210 3 50 8 107 11 128 9 59 -11 43 -26 -20 -7 -32 -15 -65 -16 -73 -7 -42
-26 -105 -38 -129 -17 -33 -33 -135 -42 -274 -6 -102 -8 -108 -30 -113 -13 -3
-24 -13 -24 -21 0 -8 -5 -11 -10 -8 -13 8 20 54 39 55 11 0 9 4 -5 14 -18 14
-18 15 -1 28 16 12 18 25 15 80 -1 36 0 64 5 61 4 -2 7 8 7 24 0 57 89 443
102 443 5 0 6 12 2 28 -4 17 -2 23 4 14 6 -8 9 2 9 33 0 25 -2 45 -4 45 -2 0
-13 -21 -24 -46z"/>
<path d="M3715 1061 c-24 -11 -51 -34 -66 -57 -36 -54 -89 -143 -89 -150 0 -3
-12 -21 -26 -40 -32 -42 -29 -89 10 -135 14 -17 26 -35 26 -40 0 -21 140 -196
166 -207 27 -11 27 -11 10 3 -11 8 -23 15 -27 15 -4 0 -10 13 -14 30 -4 17
-12 30 -18 31 -27 1 91 48 121 49 64 0 117 -20 136 -51 16 -28 52 -45 77 -37
8 3 6 9 -5 21 -9 9 -23 32 -31 50 -10 25 -22 36 -42 40 -33 6 -137 1 -176 -8
-21 -6 -27 -4 -27 8 0 23 10 26 79 29 69 3 84 18 19 18 -48 0 -74 12 -64 29 4
6 2 11 -4 11 -7 0 -5 7 4 16 9 8 16 26 16 38 0 13 9 35 21 50 24 31 31 83 12
90 -7 3 -13 14 -13 24 0 10 -3 22 -7 26 -14 13 -13 51 2 102 8 29 15 55 15 58
0 12 -67 4 -105 -13z"/>
<path d="M3415 1030 c-9 -16 -20 -30 -25 -30 -5 0 -15 -6 -22 -13 -7 -7 -34
-23 -60 -35 -27 -12 -48 -25 -48 -28 0 -3 4 -2 10 1 5 3 15 -5 21 -19 13 -28
-1 -56 -27 -56 -8 0 -14 -3 -14 -7 0 -5 -13 -17 -29 -27 -30 -21 -31 -46 -2
-46 9 0 32 15 51 33 19 18 50 43 68 56 18 12 30 27 26 32 -3 5 10 38 28 72 37
66 50 97 43 97 -2 0 -11 -13 -20 -30z"/>
<path d="M3570 589 c0 -43 26 -158 39 -174 10 -11 29 -38 44 -60 33 -49 75
-95 87 -95 5 0 3 12 -5 28 -8 15 -26 59 -41 97 -15 39 -33 77 -40 85 -6 8 -26
41 -44 73 -32 57 -40 66 -40 46z"/>
</g>
</svg>
