<?xml version="1.0" standalone="no"?>
<!DOCTYPE svg PUBLIC "-//W3C//DTD SVG 20010904//EN"
 "http://www.w3.org/TR/2001/REC-SVG-20010904/DTD/svg10.dtd">
<svg version="1.0" xmlns="http://www.w3.org/2000/svg"
 width="510.000000pt" height="340.000000pt" viewBox="0 0 510.000000 340.000000"
 preserveAspectRatio="xMidYMid meet">
<metadata>
Created by potrace 1.16, written by Peter Selinger 2001-2019
</metadata>
<g transform="translate(0.000000,340.000000) scale(0.100000,-0.100000)"
fill="#000000" stroke="none">
<path d="M3663 2720 c-48 -11 -65 -29 -58 -59 3 -13 12 -30 19 -35 8 -6 17
-24 20 -39 4 -17 17 -32 34 -39 33 -13 112 -12 126 2 7 7 5 10 -4 10 -9 0 -6
6 8 16 32 22 27 31 -18 39 -22 4 -40 11 -40 16 0 12 22 11 57 -1 26 -9 27 -9
9 5 -19 14 -19 15 6 15 15 0 30 -4 33 -10 3 -5 11 -10 17 -10 18 0 -23 40 -71
72 -46 28 -77 33 -138 18z"/>
<path d="M4003 2143 c-26 -20 -64 -49 -84 -65 -19 -16 -45 -30 -56 -32 -12 -3
-34 -11 -50 -19 -16 -9 -47 -18 -68 -22 -60 -11 -73 -20 -49 -35 15 -9 19 -20
16 -47 l-4 -34 36 6 c26 5 36 4 36 -5 0 -9 6 -8 18 3 23 21 38 21 46 1 10 -27
7 -34 -16 -34 -12 0 -19 -2 -16 -6 3 -3 40 -2 83 2 72 6 79 9 119 48 23 23 51
52 61 65 20 23 19 23 -19 -3 -21 -14 -44 -26 -50 -26 -6 0 -5 4 2 9 18 11 16
17 -9 42 -17 17 -18 23 -7 36 11 14 10 15 -10 9 -38 -12 -31 1 58 117 29 36
21 34 -37 -10z"/>
<path d="M4319 1974 c-1 -5 -1 -12 -1 -15 1 -9 -78 -7 -84 2 -2 4 -11 6 -19 3
-8 -4 -12 -11 -8 -17 3 -5 1 -7 -5 -3 -13 8 -114 -39 -138 -65 -20 -23 -36
-25 -28 -4 4 8 9 13 13 11 4 -3 12 4 19 15 12 18 11 19 -9 7 -19 -12 -89 -109
-89 -125 0 -3 -8 -12 -17 -20 -16 -12 -15 -13 12 -7 47 10 164 67 170 83 5 11
3 12 -10 1 -9 -7 -18 -10 -21 -7 -4 3 -30 -6 -58 -21 -75 -40 -78 -38 -11 6
54 35 262 122 292 122 19 0 24 17 8 30 -8 7 -16 9 -16 4z"/>
<path d="M4240 1829 c-25 -4 -81 -23 -125 -42 -99 -43 -137 -55 -199 -61 -61
-6 -77 -21 -132 -123 -25 -45 -50 -85 -55 -88 -5 -4 -9 -24 -9 -45 0 -36 -59
-190 -81 -214 -5 -6 -9 -20 -9 -32 0 -13 -4 -26 -10 -29 -18 -11 -11 49 14
121 23 67 42 174 31 174 -3 0 -24 -12 -46 -27 -34 -22 -55 -27 -125 -31 -83
-4 -84 -5 -103 -38 -11 -19 -18 -40 -16 -47 3 -6 -6 -25 -19 -41 -25 -28 -63
-123 -53 -132 3 -3 8 8 12 25 4 18 11 28 19 25 7 -2 25 12 42 31 16 20 42 51
58 68 l28 32 -25 -45 c-72 -132 -123 -218 -142 -240 -35 -40 -77 -150 -57
-150 15 0 52 31 52 45 0 25 52 57 87 53 18 -2 33 0 33 6 0 5 7 17 15 26 8 9
16 25 18 37 1 11 11 31 20 44 l18 24 -7 -25 c-6 -24 -5 -24 9 -5 8 11 40 70
71 130 32 61 66 119 77 130 11 11 2 -11 -20 -50 -38 -65 -77 -162 -84 -212 -4
-29 -17 -42 -17 -18 0 17 -1 17 -20 0 -15 -13 -17 -22 -10 -29 7 -7 13 -7 18
-1 4 6 13 11 20 13 8 1 59 30 114 63 55 33 102 58 105 56 2 -3 -35 -29 -84
-58 -48 -28 -127 -81 -175 -116 -48 -36 -103 -69 -122 -74 -27 -7 -33 -13 -29
-29 6 -21 23 -26 38 -11 6 5 46 24 90 41 44 17 125 56 181 86 56 30 107 54
115 54 30 -1 -99 -71 -219 -120 -70 -28 -148 -62 -174 -76 -26 -13 -54 -21
-62 -18 -8 3 -28 -5 -45 -17 -39 -29 -32 -38 7 -10 37 26 41 26 35 1 -3 -11
-12 -20 -21 -20 -8 0 13 -14 47 -31 56 -28 141 -101 141 -121 0 -7 -21 -10
-92 -10 -16 -1 -28 -5 -28 -10 0 -5 -10 -6 -21 -3 -13 5 -19 3 -15 -3 7 -12
-16 -22 -51 -22 -18 0 -24 -4 -20 -14 3 -8 -1 -17 -9 -20 -8 -3 -14 -15 -14
-27 0 -15 -5 -19 -15 -15 -8 3 -15 1 -15 -5 0 -6 -5 -7 -12 -3 -7 4 -8 3 -4
-5 4 -6 0 -13 -11 -17 -10 -3 -26 -10 -35 -15 -10 -5 -19 -5 -23 1 -3 5 -12 7
-20 4 -8 -4 -13 -10 -10 -14 3 -4 -5 -10 -16 -13 -12 -3 -18 -10 -15 -15 8
-14 -42 -45 -63 -39 -10 2 -23 -4 -30 -14 -6 -11 -18 -19 -26 -19 -8 0 -15 -4
-15 -10 0 -5 -6 -10 -13 -10 -14 0 -42 -30 -42 -45 0 -5 3 -15 7 -21 4 -6 5
-21 3 -33 -6 -32 14 -59 50 -67 16 -3 38 -15 48 -25 10 -10 36 -22 57 -25 22
-4 40 -8 40 -11 0 -2 -7 -17 -15 -32 -8 -16 -17 -39 -19 -52 -3 -13 -9 -36
-12 -52 l-6 -27 821 0 821 0 0 48 c0 48 27 295 35 322 6 20 17 175 16 223 -1
21 1 42 4 48 12 19 23 325 12 335 -4 4 -7 2 -7 -4 0 -6 -5 -23 -12 -39 -14
-34 -15 -39 -17 -58 -1 -16 -39 -40 -48 -31 -10 10 -4 71 11 117 8 24 18 60
21 79 5 29 41 157 63 220 6 18 9 27 18 60 13 46 -8 12 -50 -82 -27 -62 -48
-94 -60 -96 -17 -4 -18 1 -10 70 13 104 11 265 -3 279 -8 8 -13 -5 -18 -49 -4
-37 -20 -86 -40 -127 -19 -37 -39 -91 -45 -121 -15 -73 -39 -74 -36 -1 1 37 5
52 15 52 21 0 30 32 30 116 1 62 -3 81 -18 100 l-20 24 6 -24 c4 -17 3 -22 -5
-17 -7 4 -12 20 -12 36 0 18 -9 35 -25 48 -13 11 -22 22 -18 25 3 4 -6 25 -21
47 -14 22 -26 44 -26 50 0 5 -9 10 -20 10 -11 0 -20 5 -20 11 0 6 -7 8 -16 5
-15 -6 -15 -4 0 19 9 14 23 37 32 53 14 22 11 21 -13 -7 -29 -32 -32 -34 -79
-27 -56 7 -128 -11 -206 -50 -27 -14 -48 -22 -48 -19 0 6 163 87 201 100 22 8
21 9 -12 12 -20 2 -55 -3 -79 -11 -65 -22 -61 -11 5 13 78 29 131 40 195 41
38 0 51 3 43 11 -17 17 -74 26 -123 18z"/>
<path d="M3172 1049 c-23 -31 -42 -60 -42 -66 0 -5 -20 -32 -46 -58 -48 -52
-46 -66 10 -58 22 3 37 -1 46 -11 25 -32 35 -18 35 52 0 48 7 82 23 120 33 76
22 85 -26 21z"/>
</g>
</svg>
