<?xml version="1.0" standalone="no"?>
<!DOCTYPE svg PUBLIC "-//W3C//DTD SVG 20010904//EN"
 "http://www.w3.org/TR/2001/REC-SVG-20010904/DTD/svg10.dtd">
<svg version="1.0" xmlns="http://www.w3.org/2000/svg"
 width="511.000000pt" height="340.000000pt" viewBox="0 0 511.000000 340.000000"
 preserveAspectRatio="xMidYMid meet">
<metadata>
Created by potrace 1.16, written by Peter Selinger 2001-2019
</metadata>
<g transform="translate(0.000000,340.000000) scale(0.100000,-0.100000)"
fill="#000000" stroke="none">
<path d="M0 3354 l0 -47 44 6 44 6 16 -45 c15 -45 25 -216 42 -719 3 -99 9
-250 12 -335 11 -298 -3 -739 -25 -761 -12 -12 -45 2 -71 28 -7 7 -24 13 -38
13 l-24 0 0 -251 0 -251 35 30 c40 36 97 47 191 39 68 -7 112 -26 186 -82 l46
-35 -1 35 c-2 57 37 88 120 95 56 6 82 15 148 52 44 26 107 54 140 63 56 16
135 51 135 59 0 2 -7 20 -16 41 -13 32 -13 49 -3 119 23 165 23 194 -4 260
-33 79 -38 142 -20 225 17 75 36 226 36 286 0 22 -4 117 -8 211 -6 128 -4 181
5 209 8 25 13 122 15 289 2 138 6 308 10 379 l8 127 -512 0 -511 0 0 -46z"/>
<path d="M2172 2798 c-5 -7 -17 -29 -25 -48 l-16 -35 6 33 c6 35 -3 41 -23 15
-12 -16 -13 -15 -15 12 -1 31 -3 29 -24 -32 -13 -40 -29 -25 -28 24 1 24 -15
3 -22 -28 -4 -17 -9 -28 -11 -26 -3 2 0 23 5 46 7 31 6 40 -2 33 -7 -5 -100
-15 -207 -21 -107 -7 -215 -16 -240 -21 -25 -5 -91 -14 -148 -21 -71 -8 -109
-17 -126 -30 -23 -18 -23 -20 -10 -71 13 -50 34 -87 34 -60 0 9 11 11 38 6 51
-9 71 -21 82 -48 6 -17 20 -25 47 -30 43 -8 189 -41 243 -56 23 -6 49 -26 75
-57 53 -62 105 -148 105 -173 0 -18 19 -40 21 -23 0 4 2 17 5 28 9 41 15 84
36 246 21 163 22 165 41 146 16 -16 19 -35 20 -128 2 -75 6 -109 14 -109 7 0
11 19 11 49 1 46 19 128 44 196 24 64 71 161 85 178 9 9 11 17 6 17 -6 0 -15
-6 -21 -12z"/>
<path d="M4854 2307 c-12 -6 -44 -29 -71 -50 -53 -39 -63 -61 -63 -138 0 -41
7 -48 29 -26 8 8 39 11 99 9 133 -5 184 32 152 109 -7 16 -20 29 -29 29 -27 0
-63 39 -56 61 5 15 2 19 -17 19 -13 0 -32 -6 -44 -13z"/>
<path d="M2325 2201 c-13 -22 -43 -170 -38 -189 4 -16 2 -22 -8 -20 -7 2 -14
-6 -16 -17 l-3 -20 9 20 10 20 0 -20 c1 -15 4 -17 10 -7 6 11 19 7 56 -17 45
-29 55 -42 17 -22 -9 4 -35 11 -57 15 -34 6 -30 2 30 -24 77 -33 91 -36 98
-17 3 7 6 5 6 -5 1 -15 5 -16 27 -8 16 7 23 7 19 0 -3 -6 -1 -10 4 -10 6 0 11
5 11 11 0 7 16 8 47 3 38 -6 49 -4 59 11 11 15 16 16 30 5 14 -13 14 -15 -2
-27 -16 -11 -16 -13 -2 -13 9 0 20 5 23 10 9 15 25 2 25 -21 0 -14 7 -19 30
-19 17 0 30 -4 30 -9 0 -5 -13 -14 -30 -21 -40 -16 -39 -34 1 -26 28 5 31 4
26 -14 -4 -17 0 -20 29 -20 28 0 36 5 45 27 7 20 12 24 18 14 15 -24 20 35 12
147 -1 6 -11 12 -23 11 -22 0 -22 -1 -3 -9 15 -6 16 -9 4 -9 -18 -1 -49 29
-49 47 0 7 -4 12 -10 12 -5 0 -10 6 -10 14 0 16 -42 46 -64 46 -8 0 -19 6 -23
13 -8 12 -28 22 -86 46 -33 13 -44 37 -28 63 9 14 9 19 -1 23 -23 7 -219 12
-223 6z m127 -81 c-2 -44 -3 -43 70 -40 51 2 102 -20 118 -49 5 -11 19 -22 29
-26 10 -3 22 -16 25 -29 3 -14 16 -26 31 -30 21 -5 23 -9 13 -20 -11 -12 -13
-12 -16 0 -2 8 -8 14 -13 14 -19 0 -24 2 -39 14 -19 17 -146 37 -185 29 -16
-3 -40 -13 -52 -20 -12 -8 -28 -11 -34 -7 -8 4 -9 3 -5 -4 4 -7 2 -12 -3 -12
-21 0 -16 79 5 95 8 5 20 41 26 78 12 74 33 79 30 7z"/>
<path d="M1279 1966 c-19 -13 -48 -41 -65 -63 -28 -37 -29 -42 -32 -171 -4
-144 -1 -151 53 -138 30 8 32 27 5 44 -16 10 -20 23 -20 67 0 46 3 55 18 55
10 0 23 5 28 10 12 12 70 16 100 6 11 -3 36 0 55 8 41 17 55 11 64 -27 8 -32
19 -33 63 -7 51 32 45 68 -21 119 -30 22 -57 41 -60 41 -4 0 -31 11 -61 25
-30 14 -58 25 -62 25 -4 0 -12 7 -18 15 -10 13 -16 12 -47 -9z"/>
<path d="M17 808 c-16 -12 -17 -39 -15 -372 l3 -360 54 165 c72 218 126 324
248 480 45 58 57 97 26 84 -34 -13 -130 -17 -164 -7 -62 19 -133 24 -152 10z"/>
</g>
</svg>
